<?xml version="1.0" encoding="UTF-8" standalone="no"?>
<!-- Created with Inkscape (http://www.inkscape.org/) -->

<svg
   xmlns:dc="http://purl.org/dc/elements/1.1/"
   xmlns:cc="http://creativecommons.org/ns#"
   xmlns:rdf="http://www.w3.org/1999/02/22-rdf-syntax-ns#"
   xmlns:svg="http://www.w3.org/2000/svg"
   xmlns="http://www.w3.org/2000/svg"
   xmlns:sodipodi="http://sodipodi.sourceforge.net/DTD/sodipodi-0.dtd"
   xmlns:inkscape="http://www.inkscape.org/namespaces/inkscape"
   width="724.21875"
   height="906.75525"
   id="svg2"
   version="1.1"
   inkscape:version="0.48.4 r9939"
   sodipodi:docname="National Geographic Kids logo.svg">
  <defs
     id="defs4" />
  <sodipodi:namedview
     id="base"
     pagecolor="#ffffff"
     bordercolor="#666666"
     borderopacity="1.0"
     inkscape:pageopacity="0.0"
     inkscape:pageshadow="2"
     inkscape:zoom="0.24748737"
     inkscape:cx="500.59605"
     inkscape:cy="817.09004"
     inkscape:document-units="px"
     inkscape:current-layer="layer1"
     showgrid="false"
     inkscape:window-width="1366"
     inkscape:window-height="706"
     inkscape:window-x="-8"
     inkscape:window-y="-8"
     inkscape:window-maximized="1"
     fit-margin-top="0"
     fit-margin-left="0"
     fit-margin-right="0"
     fit-margin-bottom="0" />
  <metadata
     id="metadata7">
    <rdf:RDF>
      <cc:Work
         rdf:about="">
        <dc:format>image/svg+xml</dc:format>
        <dc:type
           rdf:resource="http://purl.org/dc/dcmitype/StillImage" />
        <dc:title></dc:title>
      </cc:Work>
    </rdf:RDF>
  </metadata>
  <g
     inkscape:label="Layer 1"
     inkscape:groupmode="layer"
     id="layer1"
     transform="translate(-64.904519,-146.13129)">
    <g
       id="g10"
       transform="matrix(1.3333333,0,0,-1.3333333,64.67379,1054.0985)">
      <g
         id="g12"
         transform="scale(0.1,0.1)">
        <path
           style="fill:#009f60;fill-opacity:1;fill-rule:evenodd;stroke:none"
           d="M 551,0.03125 C 445.54894,1.2653269 304.30764,50.802065 196.4375,144.8125 28.056171,291.55916 -44.371348,486.90634 52.65625,581.125 c 97.0272,94.21866 337.92084,34.11216 489.6875,-100.5625 108.54266,-96.32 170.56833,-215.18575 181.875,-311.09375 -74.21866,155.74266 -219.09859,251.63642 -318.28125,263.59375 -52.08267,6.28 -137.54858,-2.65792 -151.53125,-72.03125 93.17733,-0.37733 187.38375,-21.532 265.34375,-60 C 660.22066,231.71792 743.53275,120.26333 682.46875,44.25 658.0485,13.85023 610.15547,-0.66103702 551,0.03125 z m -3.59375,47.25 c 1.16516,-0.0017 2.33777,0.0083 3.5,0.03125 28.312,0.558667 61.00033,23.045751 62.875,57.09375 2.72133,49.47733 -81.69984,151.96033 -176.5625,196.375 -64.94533,30.40667 -136.92733,45.37533 -187.75,40.75 -20.80022,-96.58879 149.96202,-294.034635 297.9375,-294.25 z"
           transform="matrix(7.5000002,0,0,-7.5000002,1.7304675,6809.8114)"
           id="path3729"
           inkscape:connector-curvature="0" />
        <path
           style="fill:#009f60;fill-opacity:1;fill-rule:evenodd;stroke:none"
           d="M 295.484,1713.38 H 1165.36 V 1582.19 H 374.531 c -157.636,0 -235.898,-68.22 -235.898,-201.23 V 951.891 H 968.57 V 812.145 H 452.352 v -553.45 c 0,-70.566 28.832,-111.07 91.265,-111.07 l 621.743,-0.004 V 9.08984 H 301.191 C 143.305,9.08984 1.73047,121.84 1.73047,258.84 v 1122.85 c 0,172.78 68.31253,331.69 293.75353,331.69 z"
           id="path3725"
           inkscape:connector-curvature="0" />
        <path
           style="fill:#009f60;fill-opacity:1;fill-rule:evenodd;stroke:none"
           d="m 1541.79,1713.38 c 79.51,0 164.73,-58.65 200.09,-129.87 l 313.57,-631.619 h 321.62 l 111.47,-232.907 c 46.36,-96.871 97.12,-103.23 97.12,-1.359 v 995.755 h 176.82 V 267.313 c 0,-119.801 -86.37,-258.22316 -206.39,-258.22316 -133.63,0 -236.25,82.93746 -263.86,138.53516 L 1630.95,1479.8 c -18.04,36.36 -42.25,93.95 -82.62,89.58 -37.6,-4.08 -46.44,-65.77 -46.44,-103.61 V 9.08984 H 1356.45 V 1515.79 c 0,90.29 72.44,197.59 185.34,197.59 z"
           id="path3723"
           inkscape:connector-curvature="0" />
        <path
           style="fill:#009f60;fill-opacity:1;fill-rule:evenodd;stroke:none"
           d="m 3607.7,1713.38 h 173.6 l 544.69,-764.821 597.9,764.821 H 5091.2 L 4561.46,1035.76 5304.39,9.08984 H 4821.45 L 4314.89,720.363 3758.85,9.08984 h -167.3 L 4235.14,832.352 z"
           id="path3721"
           inkscape:connector-curvature="0" />
        <path
           style="fill:#009f60;fill-opacity:1;fill-rule:evenodd;stroke:none"
           d="m 3206.81,951.891 h 239.9 V 9.08984 H 3036.36 V 1713.38 h 170.45 z"
           id="path3719"
           inkscape:connector-curvature="0" />
      </g>
    </g>
  </g>
</svg>
