<?xml version="1.0" encoding="UTF-8" standalone="no"?>
<!-- Created with Inkscape (http://www.inkscape.org/) -->

<svg
   xmlns:dc="http://purl.org/dc/elements/1.1/"
   xmlns:cc="http://creativecommons.org/ns#"
   xmlns:rdf="http://www.w3.org/1999/02/22-rdf-syntax-ns#"
   xmlns:svg="http://www.w3.org/2000/svg"
   xmlns="http://www.w3.org/2000/svg"
   xmlns:inkscape="http://www.inkscape.org/namespaces/inkscape"
   version="1.1"
   width="182.16905"
   height="86.788078"
   id="svg2">
  <defs
     id="defs4">
    <inkscape:path-effect
       effect="spiro"
       id="path-effect3014" />
    <inkscape:path-effect
       effect="spiro"
       id="path-effect3014-7" />
  </defs>
  <metadata
     id="metadata7">
    <rdf:RDF>
      <cc:Work
         rdf:about="">
        <dc:format>image/svg+xml</dc:format>
        <dc:type
           rdf:resource="http://purl.org/dc/dcmitype/StillImage" />
        <dc:title></dc:title>
      </cc:Work>
    </rdf:RDF>
  </metadata>
  <g
     transform="translate(10.131711,10.016889)"
     id="layer1"
     style="display:inline" />
  <g
     transform="translate(10.131711,10.016889)"
     id="layer4"
     style="display:inline">
    <g
       transform="translate(-16.812482,-19.105093)"
       id="g4050">
      <g
         transform="translate(28.639802,-166.43507)"
         id="g3941"
         style="fill:#1e276d;fill-opacity:1;display:inline">
        <path
           d="m 9.59375,185.53125 c -1.0069646,-0.076 -2.0193593,0.39182 -2.75,1.375 -0.4288918,0.57713 -0.4827956,1.17039 -0.40625,1.6875 0.076546,0.51711 0.2472119,0.97392 0.3125,1.46875 0.1780347,1.34935 0.6301761,2.76503 0.8125,3.90625 0.068919,0.43139 0.1751292,0.84177 0.25,1.1875 0.074871,0.34573 0.1200509,0.64971 0.125,0.75 0.020479,0.415 0.048945,0.62563 0.03125,0.6875 -0.017695,0.0619 -0.078293,0.12945 -0.40625,0.34375 -1.194629,0.78062 -3.4525861,2.03967 -6.53125,4.03125 -7.5929686,4.91187 -11.74452,10.18248 -12.75,15.46875 -1.00548,5.28627 1.171234,10.52564 6.03125,15.25 9.7200323,9.44873 30.184783,17.03915 58.3125,19.90625 16.997826,1.73261 36.313203,0.22784 53.125,-3.4375 16.8118,-3.66534 31.11619,-9.45994 38.15625,-16.5 3.62918,-3.62918 5.62204,-7.2799 6.15625,-10.84375 0.53421,-3.56385 -0.39903,-7.03425 -2.53125,-10.28125 -4.26444,-6.494 -13.31494,-12.14694 -25.28125,-16.4375 -23.932627,-8.58112 -59.660692,-11.62834 -92.6875,-3.90625 -5.26339,1.23065 -9.07761,2.35903 -11.71875,3.1875 -1.32057,0.41423 -2.350266,0.75631 -3.09375,1 -0.625515,0.20502 -0.943891,0.29481 -1.15625,0.34375 -0.01173,-0.0557 -0.01968,-0.10614 -0.03125,-0.15625 -0.05491,-0.23778 -0.08555,-1.05734 -0.09375,-1.875 -0.0082,-0.81766 -0.0093,-1.68245 -0.09375,-2.21875 -0.184081,-1.16841 -0.478865,-2.36997 -1.0625,-3.1875 -0.756028,-1.05901 -1.714776,-1.67426 -2.71875,-1.75 z m 53.375,5.90625 c 2.119223,-0.0354 4.249462,-0.032 6.375,0 17.004224,0.25628 33.97571,2.64101 46.96875,6.40625 11.48353,3.3278 19.34757,7.39792 23.84375,11.71875 4.49618,4.32083 5.62928,8.80098 3.75,13.1875 -1.87928,4.38652 -6.84866,8.70278 -14.78125,12.40625 -7.93259,3.70347 -18.8069,7.20775 -32.34375,9.21778 -30.734324,4.56361 -61.846353,0.52674 -81.625,-6.96778 -9.8893233,-3.74726 -16.9048046,-8.4709 -19.65625,-13.5 -1.3757227,-2.51455 -1.7224736,-5.10849 -0.84375,-7.75 0.8787236,-2.64151 3.0047492,-5.34596 6.5625,-8.0625 2.9989665,-2.28988 6.1540819,-4.50268 7.1875,-5.28125 0.084739,-0.0638 0.1623447,-0.13008 0.25,-0.1875 0.087655,-0.0574 0.194653,-0.0962 0.15625,-0.0937 0.00309,-2e-4 0.1061482,0.0817 0.15625,0.15625 0.00222,0.003 0.105351,0.20666 0.1875,0.46875 0.082149,0.26209 0.1552987,0.59995 0.25,0.96875 0.1894026,0.7376 0.3858719,1.59674 0.53125,2.25 0.329291,1.47967 0.711313,4.23112 0.90625,5.375 0.04785,0.28077 0.265047,1.66466 0.46875,3.8125 0.223092,2.3523 0.234077,5.62879 0.40625,8.8125 0.243811,4.50838 0.12536,7.03002 0.40625,8.625 0.14239,0.80854 0.424575,1.34232 0.78125,1.6875 0.356675,0.34518 0.757193,0.47027 1.09375,0.59375 1.602619,0.588 3.571758,-0.0164 4.25,-1.8125 0.396822,-1.05086 0.353239,-2.32896 0.25,-3.6875 -0.100621,-1.32412 -0.276403,-2.75772 -0.46875,-4.15625 -0.21235,-1.54397 -0.314881,-2.55843 -0.25,-3.0625 0.03244,-0.25203 0.08965,-0.34124 0.09375,-0.34375 0.0041,-0.003 0.09219,-0.026 0.3125,0.0625 0.357118,0.14352 1.004376,0.59987 1.84375,1.1875 0.839374,0.58763 1.870772,1.32763 3.15625,2.0625 2.509602,1.43466 4.79392,2.26494 6.71875,2.46875 1.92483,0.20381 3.554958,-0.25474 4.5625,-1.46875 0.504397,-0.60776 0.805693,-1.29912 0.65625,-2 -0.149443,-0.70088 -0.759827,-1.27989 -1.84375,-1.75 -1.704736,-0.73936 -3.600548,-0.2139 -7.09375,-1.6875 -1.9707,-0.83133 -3.254313,-1.62262 -3.8125,-2.21875 -0.279093,-0.29807 -0.361694,-0.52277 -0.34375,-0.65625 0.01794,-0.13348 0.120228,-0.28452 0.46875,-0.46875 0.330757,-0.17484 1.186923,-0.42928 2.15625,-0.6875 0.969327,-0.25822 2.068656,-0.53049 2.96875,-0.8125 1.848458,-0.57914 2.966231,-1.34389 3.46875,-2.21875 0.502519,-0.87486 0.291669,-1.87294 -0.375,-2.59375 -0.495988,-0.53626 -1.206746,-0.89009 -2.15625,-0.875 -1.515949,0.0241 -2.606296,0.79074 -4.78125,1.3125 -1.576775,0.37827 -2.913764,0.88132 -4,1.1875 -1.086236,0.30618 -1.866187,0.39233 -2.28125,0.125 -0.525453,-0.33842 -1.044901,-1.20849 -1.4375,-2.5 -0.392599,-1.29151 -0.674024,-2.99023 -0.875,-4.9375 l -0.5625,-5.3125 7.5625,-2.71875 c 11.465027,-4.1071 25.946691,-6.03376 40.78125,-6.28125 z m -10,17.1875 c -0.814842,-0.0467 -1.745415,0.016 -2.8125,0.0625 -7.497635,0.32655 -12.895541,3.95963 -14.65625,8.09375 -0.880354,2.06706 -0.83222,4.27712 0.34375,6.1875 1.17597,1.91038 3.445992,3.49729 6.9375,4.4375 3.519539,0.94776 6.578568,1.37768 8.8125,1.21875 1.116966,-0.0795 2.048625,-0.28644 2.71875,-0.71875 0.670125,-0.43231 1.0625,-1.12284 1.0625,-1.9375 0,-0.2181 0.05937,-0.57603 -0.03125,-0.96875 -0.09062,-0.39272 -0.412136,-0.80672 -1,-1 -0.988858,-0.32513 -2.333417,-0.37387 -3.625,-0.375 -1.291583,-0.001 -2.515661,0.0692 -3.09375,0.0312 -2.148873,-0.14081 -3.494441,-0.55858 -4.25,-1.03125 -0.755559,-0.47267 -0.921561,-0.94144 -0.875,-1.28125 0.04325,-0.31566 0.143302,-0.48041 0.28125,-0.59375 0.137948,-0.11334 0.370884,-0.21282 0.75,-0.25 0.758233,-0.0744 2.006528,0.0598 3.84375,0.1875 1.748085,0.12157 3.771349,0.16581 5.523881,0.27033 1.752532,0.1045 3.191094,0.30617 4.069869,-0.0828 0.523925,-0.23193 0.887066,-0.39388 1.125,-0.71875 0.237934,-0.32487 0.28125,-0.72254 0.28125,-1.25 0,-0.61837 -0.08579,-1.09513 -0.34375,-1.46875 -0.257964,-0.37362 -0.668054,-0.58 -1.15625,-0.6875 -0.976393,-0.21501 -3.221728,-0.25187 -4.356712,-0.17099 -1.169351,-0.0477 -2.026097,0.12317 -4.130593,0.0422 -1.697045,-0.0525 -2.606526,-0.39693 -2.762695,-0.43363 -0.156169,-0.0368 -0.264494,-0.10515 -0.25,-0.0937 -0.240489,-0.18918 -0.342216,-0.32447 -0.375,-0.4375 -0.03278,-0.11303 -0.02716,-0.19865 0.03125,-0.3125 0.116826,-0.22771 0.481116,-0.51041 0.78125,-0.65625 0.149162,-0.0725 0.563308,-0.19972 1.09375,-0.3125 0.530442,-0.11278 1.193221,-0.22238 1.90625,-0.3125 1.426058,-0.18024 3.061666,-0.27717 4.28125,-0.15625 1.575299,0.1562 2.676469,-0.5641 3.03125,-1.5625 0.354781,-0.9984 -0.0178,-2.21524 -1.03125,-3.03125 -0.582633,-0.46914 -1.303992,-0.64049 -2.125,-0.6875 z m 66.8125,1.125 c -0.72101,-0.0246 -1.41894,0.004 -2.0625,0.0937 -4.50446,0.63043 -6.93879,3.94346 -6.75,7.375 0.18879,3.43154 2.99452,6.93153 8.625,8.03125 0.80722,0.15766 1.60609,0.21147 2.25,0.21875 0.64391,0.007 1.15949,-0.037 1.34375,-0.0312 4.35216,0.13543 7.91151,-4.40854 6.5,-9.09375 -0.97365,-3.23182 -3.98029,-5.66 -7.625,-6.34375 -0.80304,-0.15065 -1.56024,-0.22543 -2.28125,-0.25 z m -27.158773,0.86238 c -5.620657,0.019 -8.818616,2.94722 -9.677407,6.12656 -0.858791,3.17934 0.363794,6.28326 4.185946,8.8321 3.131457,2.08824 11.148518,2.10451 13.587734,1.92896 2.88158,-0.20739 5.31571,-0.62453 7.125,-1.3125 1.80929,-0.68797 3.04057,-1.67502 3.28125,-3.0625 0.0935,-0.53918 0.0435,-1.06111 -0.1875,-1.5 -0.23099,-0.43889 -0.64981,-0.76758 -1.1875,-0.96875 -1.07538,-0.40235 -2.67487,-0.33241 -4.875,0.40625 -0.27997,0.094 -0.93452,0.25727 -1.8125,0.375 -0.87798,0.11773 -1.96574,0.20693 -3.125,0.28125 -2.318526,0.14863 -4.944162,0.15897 -6.71875,-0.15625 -1.434472,-0.2548 -2.596721,-0.74749 -3.40625,-1.3125 -0.809529,-0.56501 -1.246255,-1.21731 -1.3125,-1.65625 -0.104622,-0.69323 -0.04174,-1.19105 0.15625,-1.59375 0.197994,-0.4027 0.534766,-0.7077 1,-0.9375 0.930468,-0.4596 2.412338,-0.59307 4.15625,-0.46875 1.844008,0.13146 3.03532,-0.38691 3.5,-1.25 0.46468,-0.86309 0.06232,-2.10617 -0.877523,-2.82512 -0.869564,-0.6652 -2.228474,-0.91138 -3.8125,-0.90625 z m 26.971273,4.45012 c 0.55264,0.0785 1.62073,0.39156 2.53125,0.875 0.91052,0.48344 1.64595,1.16708 1.78125,1.75 0.15659,0.67467 0.004,1.13898 -0.4375,1.46875 -0.44102,0.32977 -1.23692,0.50286 -2.4375,0.3125 -0.34189,-0.0542 -1.24852,-0.42592 -2.03125,-0.875 -0.39136,-0.22454 -0.78657,-0.46323 -1.0625,-0.6875 -0.27593,-0.22427 -0.41931,-0.4445 -0.4375,-0.5 -0.27417,-0.8363 -0.0833,-1.44027 0.34375,-1.84375 0.42704,-0.40348 1.10244,-0.59197 1.75,-0.5 z"
           id="path3909"
           style="fill:#1e276d;fill-opacity:1" />
      </g>
      <path
         d="m 88.313135,34.730863 c -0.4982,0.0144 -0.964091,0.1851 -1.28125,0.5 -0.317159,0.3149 -0.503126,0.74919 -0.5625,1.25 -0.118748,1.00163 0.263519,2.29489 1.125,3.71875 0.791594,1.30835 1.724138,4.90391 1.75,11.375 0.0091,2.27533 -0.09094,4.73925 0.0625,6.71875 0.07672,0.98975 0.214151,1.85002 0.46875,2.53125 0.254599,0.68123 0.685403,1.23772 1.3125,1.375 0.385077,0.0843 0.741777,0.17893 1.125,0.15625 0.383223,-0.0227 0.796726,-0.21238 1.146933,-0.51184 0.187484,-0.16032 0.588525,-0.46176 0.899469,-1.58392 0.16582,-0.59842 0.06005,-1.78235 0.06005,-2.77773 0,-1.3136 -0.444325,-3.18518 -0.461115,-4.20552 -0.01486,-0.90321 -0.07393,-1.17727 0.03507,-1.44106 0.123384,-0.29861 0.283764,-0.39685 0.492632,-0.47155 0.148419,-0.0531 0.423418,0.10446 0.524636,0.20119 0.101218,0.0969 0.291258,0.36004 0.396085,0.5404 0.187328,0.3223 0.3542,0.72338 0.5625,1.125 0.2083,0.40162 0.474305,0.81485 0.90625,1.03125 0.480611,0.24078 0.922333,0.33418 1.34375,0.28125 0.421417,-0.0529 0.80918,-0.25373 1.15625,-0.53125 0.694135,-0.55503 1.334655,-1.41495 2.312505,-2.4375 0.52731,-0.55142 0.97911,-1.16076 1.375,-1.59375 0.19794,-0.2165 0.37597,-0.40454 0.53125,-0.5 0.29077,-0.17875 0.60947,-0.27777 0.90269,-0.22967 0.13315,0.0218 0.40589,0.27386 0.50356,0.66717 0.19533,0.78662 0.21925,2.72676 0.125,6.8125 -0.0589,2.55477 -0.0602,6.18453 0,9.375 0.0301,1.59523 0.0563,3.06795 0.125,4.25 0.0688,1.18205 0.1405,2.03343 0.28125,2.5 0.26949,0.89339 1.01094,1.28259 1.375,1.46875 0.60952,0.31169 1.27773,0.36561 1.84375,0.125 0.56601,-0.24061 1.01571,-0.77527 1.21875,-1.5 0.31953,-1.14055 0.22964,-2.76228 0.0937,-5.03125 -0.1359,-2.26897 -0.34614,-5.17947 -0.3125,-8.84375 0.0409,-4.45292 -0.40042,-8.7547 -0.125,-12.15625 0.11684,-1.44307 0.40194,-2.7981 0.6875,-3.875 0.28555,-1.0769 0.57239,-1.84873 0.65625,-2.28125 0.28374,-1.46361 -0.0966,-2.58918 -0.90625,-3.125 -0.80963,-0.53582 -1.95937,-0.40873 -3,0.375 -0.53332,0.40166 -0.98364,1.15251 -1.5,2 -0.51637,0.84749 -1.06155,1.80753 -1.5625,2.5 -1.20873,1.67083 -2.28108,2.87015 -3.25,3.59375 -0.968934,0.7236 -1.808845,0.94797 -2.625005,0.78125 -0.81616,-0.16672 -1.665973,-0.77627 -2.59375,-1.90625 -0.927777,-1.12998 -1.911212,-2.75763 -3,-4.90625 -0.653847,-1.2903 -1.049593,-2.5771 -1.59375,-3.59375 -0.272079,-0.50832 -0.569247,-0.96355 -1,-1.28125 -0.430753,-0.3177 -0.97811,-0.4875 -1.625,-0.46875 z"
         id="path4005-8"
         style="fill:#d5000c;fill-opacity:1;display:inline" />
    </g>
  </g>
</svg>
