<svg fill="none" width="270.495" height="369.692" xmlns="http://www.w3.org/2000/svg"><path fill="url(#a)" d="M169.433 305.12H17.073C7.659 305.12.03 297.491.03 288.078V17.096C.03 7.682 7.659.053 17.073.053H78.54c9.414 0 17.043 7.629 17.043 17.043l90.892 270.985c0 9.41-7.632 17.04-17.042 17.04z" style="opacity:.9;fill:url(#a);stroke-width:.330542"/><path fill="url(#b)" d="M78.51 2.783c7.874 0 14.277 6.406 14.277 14.28v.452l.142.427 90.74 270.592c-.228 7.675-6.541 13.85-14.27 13.85H17.044c-7.874 0-14.276-6.406-14.276-14.28V17.063c0-7.874 6.406-14.28 14.276-14.28zm0-2.766H17.043C7.629.017 0 7.649 0 17.063V288.1c0 9.414 7.629 17.046 17.043 17.046H169.4c9.414 0 17.042-7.632 17.042-17.046L95.553 17.063C95.553 7.649 87.921.017 78.51.017z" style="opacity:.9;fill:url(#b);stroke-width:.330542"/><path fill="url(#c)" d="M22.01.909s108.885 1.93 113.245 1.93c8.782 0 20.526 0 32.697 4.958 24.083 9.811 40.273 29.95 39.632 61.455-.602 29.461-24.087 49.228-49 57.118-3.593 1.137-11.165 2.984-11.423 5.374-.159 1.458 7.083 14.465 9.427 17.88 2.036 2.964 83.67 121.646 104.957 152.776l-138.345.007L15.985 145.832s-2.231-2.958-1.507-5.242c1.054-3.32 4.327-4.129 7.55-5.388 4.366-1.706 41.466-16.203 42.391-59.802 1.028-48.58-38.385-55.915-42.349-57.22-6.696-2.205-11.678-9.361-9.314-13.747C15.235-.162 22.01.909 22.01.909Z" style="fill:url(#c);stroke-width:.330542"/><path fill="url(#d)" d="M17.043.017C9.675.017 3.415 4.704 1.038 11.252h2.975c2.23-4.985 7.225-8.469 13.03-8.469h55.759V.017Z" style="fill:url(#d);stroke-width:.330542"/><path fill="url(#e)" d="M154.971 302.334H104.76v2.816h50.212z" style="fill:url(#e);stroke-width:.330542"/><path fill="url(#f)" d="M30.816.007h111.982c8.478 0 19.816 0 31.566 4.786 23.247 9.47 41.398 32.588 41.17 63.005-.235 31.715-25.089 54.962-49.139 62.578-3.467 1.097-7.216 1.352-7.467 3.659-.152 1.405 2.198 4.37 4.46 7.665 2.26 3.296 105.872 154.73 105.872 154.73s2.723 3.795.073 6.786c-1.868 2.106-6.542 1.92-6.542 1.92H150.988s-6.914.351-10.144-2.881c-1.983-1.984-5.51-6.991-5.51-6.991L27.66 138.04s-2.155-2.856-1.455-5.06c1.018-3.203 4.178-3.987 7.289-5.203 4.214-1.646 40.029-15.642 40.921-57.73C75.41 23.155 35.606 8.903 31.62 8.32c-2.75-.4-5.415-1.95-5.415-4.433 0-4.204 4.611-3.88 4.611-3.88z" style="fill:url(#f);stroke-width:.330542"/><path fill="url(#g)" d="M30.816.007h111.982c8.478 0 19.816 0 31.566 4.786 23.247 9.47 41.398 32.588 41.17 63.005-.235 31.715-25.089 54.962-49.139 62.578-3.467 1.097-7.216 1.352-7.467 3.659-.152 1.405 2.198 4.37 4.46 7.665 2.26 3.296 105.872 154.73 105.872 154.73s2.723 3.795.073 6.786c-1.868 2.106-6.542 1.92-6.542 1.92H150.988s-6.914.351-10.144-2.881c-1.983-1.984-5.51-6.991-5.51-6.991L27.66 138.04s-2.155-2.856-1.455-5.06c1.018-3.203 4.178-3.987 7.289-5.203 4.214-1.646 40.029-15.642 40.921-57.73C75.41 23.155 35.606 8.903 31.62 8.32c-2.75-.4-5.415-1.95-5.415-4.433 0-4.204 4.611-3.88 4.611-3.88z" style="fill:url(#g);stroke-width:.330542"/><path fill="url(#h)" d="M30.816.007h111.982c8.478 0 19.816 0 31.566 4.786 23.247 9.47 41.398 32.588 41.17 63.005-.235 31.715-25.089 54.962-49.139 62.578-3.467 1.097-7.216 1.352-7.467 3.659-.152 1.405 2.198 4.37 4.46 7.665 2.26 3.296 105.872 154.73 105.872 154.73s2.723 3.795.073 6.786c-1.868 2.106-6.542 1.92-6.542 1.92H150.988s-6.914.351-10.144-2.881c-1.983-1.984-5.51-6.991-5.51-6.991L27.66 138.04s-2.155-2.856-1.455-5.06c1.018-3.203 4.178-3.987 7.289-5.203 4.214-1.646 40.029-15.642 40.921-57.73C75.41 23.155 35.606 8.903 31.62 8.32c-2.75-.4-5.415-1.95-5.415-4.433 0-4.204 4.611-3.88 4.611-3.88z" style="fill:url(#h);stroke-width:.330542"/><path fill="url(#i)" d="M80.424 70.177c.803-37.86-23.243-56.84-37.992-64.158L30.813.007S30.731 0 30.588 0c-.928 0-4.386.245-4.386 3.89 0 2.48 2.668 4.033 5.414 4.433 3.987.582 43.787 14.831 42.796 61.729-.602 28.347-17.036 43.939-28.999 51.607H55.67c11.952-9.708 24.212-25.861 24.754-51.482Z" style="fill:url(#i);stroke-width:.330542"/><path fill="url(#j)" d="M150.988 299.124h-.152l-.122.007c-.043 0-.155.003-.324.003-2.717 0-4.82-.657-5.295-1.13-1.114-1.114-3.504-4.297-4.803-6.135L32.618 134.646l-.04-.06c.569-.254 1.306-.528 1.871-.74.407-.152.82-.307 1.23-.466 2.485-.971 6.343-2.677 10.769-5.301v-7.087c-6.264 4.171-11.5 6.22-12.957 6.79-3.11 1.215-6.27 1.996-7.289 5.202-.7 2.205 1.454 5.06 1.454 5.06L135.327 295.27s3.527 5.005 5.51 6.991c2.655 2.654 7.798 2.892 9.547 2.892.38 0 .598-.01.598-.01h95.692v-6.012h-95.686z" style="fill:url(#j);stroke-width:.330542"/><path fill="url(#k)" d="M81.052 86.172c-.026 2.896 4.248 21.644 3.573 24.963-.65 3.322.698 9.083-.859 12.544-1.544 3.464-4.277 14.99-6.859 18.12-1.338 1.584-2.832 9.89-4.607 11.424-3.494 13.536-3.332 19.942-2.615 22.54 1.46 5.252-1.246 15.277-.393 18.345.82 3.123-11.725-15.632-11.725-15.632s-1.213-1.411-3.14-4.012c-1.89-2.622-4.561-6.396-7.325-11.219a102.312 102.312 0 0 1-4.181-8.026c-1.326-2.991-2.707-6.111-3.547-10.11-.099-.54-.205-1.25-.268-1.743l-.076-.641-.02-.162-.003-.04-.006-.241-.004-.126-.01-.509c0-1.358.219-2.826.701-4.217.965-2.836 2.823-4.995 4.522-6.499 3.45-3.057 6.677-4.707 9.374-6.63 1.369-.91 2.598-1.828 3.676-2.78a35.981 35.981 0 0 0 3.127-3.19c2.033-2.307 3.804-4.803 5.361-7.381 1.52-2.598 2.82-5.272 3.937-7.92a86.668 86.668 0 0 0 2.777-7.748c.75-2.482 1.371-4.822 1.903-6.935.493-2.112.88-3.993 1.22-5.56-.777-2.832-.297-12.805.433-12.867.44-.043 3.646 7.285 5.034 16.252z" opacity=".6" style="fill:url(#k);stroke-width:.330542"/><path fill="#eed988" d="m29.676 138.444-2.228-3.107s-.694-2.254 1.362-3.758c1.547-1.134 6.112-2.106 12.425-5.86 6.314-3.759 15.49-10.512 19.79-15.734 5.669-6.879 7.11-10.386 9.219-14.58 4.207-8.367 4.22-17.787 5.609-19.37 0 0 3.21 26.536-7.613 41.717-10.821 15.182-14.728 16.233-16.834 18.339-2.106 2.105-4.961 4.66-5.712 7.216-.75 2.555-1.203 6.462 2.254 13.978 3.458 7.517 10.796 22.966 10.796 22.966L44.441 159.94s-7.866-11.374-9.668-13.777c-1.801-2.404-5.097-7.719-5.097-7.719z" style="stroke-width:.330542"/><path fill="url(#l)" d="m29.676 138.444-2.228-3.107s-.694-2.254 1.362-3.758c1.547-1.134 6.112-2.106 12.425-5.86 6.314-3.759 15.49-10.512 19.79-15.734 5.669-6.879 7.11-10.386 9.219-14.58 4.207-8.367 4.22-17.787 5.609-19.37 0 0 3.21 26.536-7.613 41.717-10.821 15.182-14.728 16.233-16.834 18.339-2.106 2.105-4.961 4.66-5.712 7.216-.75 2.555-1.203 6.462 2.254 13.978 3.458 7.517 10.796 22.966 10.796 22.966L44.441 159.94s-7.866-11.374-9.668-13.777c-1.801-2.404-5.097-7.719-5.097-7.719z" opacity=".8" style="fill:url(#l);stroke-width:.330542"/><path fill="url(#m)" d="M72.6 44.7s-7.834-18.64-21.663-28.56C37.107 6.22 28.992 6.22 28.238 4.416c-.75-1.805-.149-3.005 2.856-3.305 3.005-.301 123.854 0 123.854 0s35.775 6.313 46.296 26.152c10.521 19.84 15.03 28.559 12.326 46.597-2.707 18.037-4.208-9.92-4.208-9.92s1.693-8.478-7.133-17.386C200.507 44.812 75.926 42.15 72.6 44.699Z" style="fill:url(#m);stroke-width:.330542"/><path fill="url(#n)" d="M74.666 53.098S68.862 30.271 51.33 17.043C37.745 6.793 29.273 7.774 27.752 5.018c-.945-1.713-.172-3.742 2.836-4.043 3.005-.3 123.63.51 123.63.51s30.367 1.262 47.03 25.778c14.147 20.818 13.482 36.376 12.712 46.673-.836 11.189-9.52 16.732-8.386 13.773 1.58-4.121 2.152-11.218 2.152-11.218s2.354-19.915-9.996-36.043c-9.694-12.66-25.779-22.87-52.985-22.87l-85.62-.01c.006 0 17.31 20.67 15.541 35.53z" style="fill:url(#n);stroke-width:.330542"/><path fill="url(#o)" d="M207.716 67.751c.582 8.327-.519 15.047-2.138 19.958-6.324 19.188-24.775 31.799-40.998 36.935-.71.225-1.438.407-2.132.582-3.094.787-12.937 2.896-15.85 10.257-1.546 4.624-1.146 8.521 2.209 13.83.853-13.93 9.655-13.89 9.807-15.295.251-2.303 4.122-2.81 7.59-3.907 24.053-7.612 48.807-30.644 49.042-62.36z" style="fill:url(#o);stroke-width:.330542"/><path fill="url(#p)" d="M160.356 130.409s-2.945 2.486-2.304 4.479c.936 2.918 95.223 140.99 95.223 140.99l14.428 21.643s1.504 1.203 0 3.907c-1.504 2.707-4.81 1.805-4.81 1.805l-62.227.145-66.588-123.85s4.875-31.954 18.322-44.974c3.699-3.577 7.956-4.145 7.956-4.145z" opacity=".6" style="fill:url(#p);stroke-width:.330542"/><path fill="url(#q)" d="M160.71 130.115s-4.016 3.17-3.378 5.16c.935 2.918 95.943 140.602 95.943 140.602l14.428 21.27s2.03 2.179.668 4.698c-1.157 2.142-5.93 1.709-5.93 1.709l-61.779-.176 24.695-3.847s9.8-1.107 12.283-8.022c2.28-6.36-2.105-13.53-2.105-13.53l-85.862-127.086s-4.36-5.749.284-13.52c2.949-4.938 10.753-7.258 10.753-7.258z" style="fill:url(#q);stroke-width:.330542"/><path fill="url(#r)" d="M30.588 1.805h.1l.062.003h112.06c8.208 0 19.45 0 30.87 4.65 24.53 9.993 40.25 34.063 40.049 61.323-.235 31.48-24.983 53.624-47.88 60.873-.79.25-1.593.453-2.366.65-2.823.718-6.023 1.531-6.35 4.533-.188 1.742 1.078 3.632 3.524 7.106.406.575.823 1.17 1.24 1.775 2.234 3.256 104.834 153.217 105.895 154.764.02.026 1.864 2.647.189 4.535-.81.912-3.048 1.318-4.909 1.318l-.284-.003-111.895.003c-.02 0-.205.01-.513.01-2.856 0-6.528-.621-8.27-2.363-1.851-1.851-5.279-6.703-5.299-6.733L29.098 136.957c-.556-.737-1.471-2.499-1.177-3.428.595-1.877 2.31-2.601 5.054-3.623.387-.145.78-.29 1.17-.442 9.655-3.772 41.219-19.198 42.068-59.372C76.75 44.88 65.57 29.203 56.1 20.494 44.977 10.264 33.646 6.799 31.874 6.54c-1.924-.28-3.87-1.279-3.87-2.647.003-.52.003-2.09 2.584-2.09zm0-1.802c-.925 0-4.386.245-4.386 3.89 0 2.48 2.668 4.033 5.414 4.433 3.987.582 43.787 14.832 42.796 61.73-.893 42.087-36.707 56.082-40.921 57.728-3.11 1.217-6.27 1.997-7.289 5.203-.7 2.205 1.454 5.06 1.454 5.06l107.671 157.227s3.527 5.004 5.51 6.99c2.655 2.655 7.798 2.893 9.547 2.893.38 0 .598-.01.598-.01h111.806s.102.003.284.003c1.038 0 4.667-.132 6.257-1.927 2.654-2.988-.072-6.786-.072-6.786s-103.612-151.435-105.873-154.73c-2.264-3.296-4.611-6.261-4.46-7.666.252-2.304 3.997-2.558 7.468-3.659 24.05-7.616 48.9-30.863 49.138-62.578.225-30.416-17.922-53.534-41.169-63.005C162.617.017 151.29.013 142.814.013H30.816s-.085-.01-.228-.01z" style="fill:url(#r);stroke-width:.330542"/><path fill="url(#s)" d="M32.978 129.903c.387-.145.78-.29 1.17-.443 9.655-3.771 41.219-19.198 42.068-59.372.536-25.21-10.643-40.888-20.113-49.598C44.98 10.26 33.649 6.796 31.878 6.538c-1.924-.28-3.871-1.28-3.871-2.648 0-.515 0-2.085 2.581-2.085h.1l.062.003h112.06c2.176 0 4.569 0 7.117.09V.088c-2.535-.082-4.921-.082-7.116-.082H30.813S30.731 0 30.588 0c-.925 0-4.386.245-4.386 3.89 0 2.48 2.668 4.033 5.414 4.433 3.987.582 43.787 14.831 42.796 61.729-.893 42.088-36.707 56.083-40.921 57.73l-1.025.39v1.926c.165-.066.337-.129.512-.195z" style="fill:url(#s);stroke-width:.330542"/><path fill="url(#t)" d="M165.85 128.657c-.79.251.773-.195 0 0-2.823.717-8.39 2.178-8.713 5.183-.189 1.742 1.077 3.633 3.523 7.107.407.575.823 1.17 1.24 1.775 1.031 1.5 23.392 34.181 47.3 69.123h2.185a376327.83 376327.83 0 0 0-47.998-70.145c-2.264-3.295-4.611-6.26-4.459-7.665.251-2.304 3.996-2.558 7.467-3.66 20.632-6.534 41.84-24.578 47.605-49.6h-1.831c-5.775 24.549-26.718 41.674-46.32 47.882z" style="fill:url(#t);stroke-width:.330542"/><path fill="url(#u)" d="M29.098 136.957c-.556-.737-1.471-2.499-1.177-3.428.595-1.877 2.31-2.601 5.054-3.623.387-.145.78-.29 1.17-.442 8.746-3.418 35.474-16.402 41.057-48.686h-1.848c-6.059 33.785-36.032 45.509-39.867 47.006-3.11 1.217-6.27 1.997-7.288 5.203-.701 2.205 1.454 5.06 1.454 5.06l39.632 57.869h2.185z" style="fill:url(#u);stroke-width:.330542"/><path fill="url(#v)" d="M269.263 296.43s-27.848-40.703-54.986-80.364h-2.184l55.706 81.419c.02.026 1.864 2.647.188 4.535-.81.912-3.047 1.319-4.908 1.319l-112.689.007c-2.856 0-6.528-.622-8.27-2.364-1.851-1.85-5.279-6.703-5.299-6.733l-7.847-11.456h-2.185l8.545 12.474s3.527 5.005 5.51 6.991c2.654 2.655 7.798 2.893 9.546 2.893h112.656c1.038 0 4.7-.14 6.29-1.934 2.65-2.988-.073-6.786-.073-6.786z" style="fill:url(#v);stroke-width:.330542"/><path fill="url(#w)" d="M165.85 128.657c-.79.251-1.594.453-2.367.651-2.823.717-6.023 1.53-6.35 4.532-.188 1.742 1.078 3.633 3.524 7.107.406.575.823 1.17 1.24 1.775 1.03 1.5 23.392 34.181 47.3 69.123h2.185a462846.29 462846.29 0 0 0-47.998-70.145c-2.264-3.295-4.611-6.26-4.46-7.665.252-2.304 3.997-2.558 7.468-3.66 20.632-6.534 41.84-24.578 47.604-49.6h-1.83c-5.772 24.549-26.715 41.674-46.316 47.882z" style="fill:url(#w);stroke-width:.330542"/><path fill="url(#x)" d="M29.098 136.957c-.556-.737-1.471-2.499-1.177-3.428.595-1.877 2.31-2.601 5.054-3.623.387-.145.78-.29 1.17-.442 8.746-3.418 35.474-16.402 41.057-48.686h-1.848c-6.059 33.785-36.032 45.509-39.867 47.006-3.11 1.217-6.27 1.997-7.288 5.203-.701 2.205 1.454 5.06 1.454 5.06l39.632 57.869h2.185z" style="fill:url(#x);stroke-width:.330542"/><path fill="url(#y)" d="M269.263 296.43s-27.848-40.703-54.986-80.364h-2.184l55.706 81.419c.02.026 1.864 2.647.188 4.535-.81.912-3.047 1.319-4.908 1.319l-112.689.007c-2.856 0-6.528-.622-8.27-2.364-1.851-1.85-5.279-6.703-5.299-6.733l-7.847-11.456h-2.185l8.545 12.474s3.527 5.005 5.51 6.991c2.654 2.655 7.798 2.893 9.546 2.893h112.656c1.038 0 4.7-.14 6.29-1.934 2.65-2.988-.073-6.786-.073-6.786z" style="fill:url(#y);stroke-width:.330542"/><path fill="url(#z)" d="m45.615 369.692-10.634-16.57h-8.316v16.57h-5.19v-41.708h16.759c1.917 0 3.669.29 5.252.876 1.587.585 2.959 1.428 4.129 2.532a11.581 11.581 0 0 1 2.72 3.97c.645 1.54.968 3.272.968 5.19 0 1.873-.29 3.543-.872 5-.585 1.458-1.375 2.688-2.377 3.69a11.389 11.389 0 0 1-3.47 2.372 12.752 12.752 0 0 1-4.096 1.065l11.258 17.013zm-8.006-21.198c2.502 0 4.512-.737 6.033-2.211 1.52-1.474 2.284-3.395 2.284-5.762 0-2.366-.76-4.277-2.284-5.731-1.521-1.451-3.534-2.178-6.033-2.178H26.665v15.882z" style="fill:url(#z);stroke-width:.330542"/><path fill="url(#A)" d="m116.126 369.692-3.689-9.255H91.68l-3.689 9.255h-5.94l16.759-41.708h6.439l16.821 41.708zm-14.071-36.33-8.878 22.447h17.694z" style="fill:url(#A);stroke-width:.330542"/><path fill="url(#B)" d="m177.491 369.692-10.633-16.57h-8.317v16.57h-5.19v-41.708h16.76c1.916 0 3.668.29 5.252.876 1.586.585 2.958 1.428 4.128 2.532a11.581 11.581 0 0 1 2.72 3.97c.645 1.54.969 3.272.969 5.19 0 1.873-.29 3.543-.873 5-.585 1.458-1.375 2.688-2.376 3.69a11.389 11.389 0 0 1-3.47 2.372 12.752 12.752 0 0 1-4.096 1.065l11.258 17.013zm-8.002-21.198c2.502 0 4.512-.737 6.032-2.211 1.52-1.474 2.284-3.395 2.284-5.762 0-2.366-.76-4.277-2.284-5.731-1.52-1.451-3.533-2.178-6.032-2.178h-10.944v15.882z" style="fill:url(#B);stroke-width:.330542"/><path fill="url(#C)" d="M216.951 369.692v-41.708h27.323v4.628h-22.136v13.443h21.7v4.627h-21.7v14.382h22.136v4.628z" style="fill:url(#C);stroke-width:.330542"/><path fill="#ae6d29" d="M223.288 17.591c-4.353 0-7.89-3.536-7.89-7.893a7.873 7.873 0 0 1 7.89-7.893c4.396 0 7.893 3.5 7.893 7.893 0 4.357-3.5 7.893-7.893 7.893zm0-14.593a6.673 6.673 0 0 0-6.7 6.7 6.699 6.699 0 0 0 6.7 6.704c3.686 0 6.703-3.015 6.703-6.704a6.7 6.7 0 0 0-6.703-6.7zm2.158 11.242-2.346-3.573h-1.564v3.573h-1.263V5.193h3.686c1.524 0 2.942 1.08 2.942 2.757 0 2.01-1.788 2.68-2.31 2.68l2.422 3.61zm-1.487-7.93h-2.423v3.203h2.423c.78 0 1.636-.635 1.636-1.563 0-1.005-.856-1.64-1.636-1.64z" style="stroke-width:.330542"/><defs><linearGradient id="a" x1="-56.495" x2="354.236" y1="800.241" y2="389.509" gradientUnits="userSpaceOnUse" gradientTransform="scale(.33054)"><stop offset="0" stop-color="#0BBBE6"/><stop offset=".072" stop-color="#09A8DA"/><stop offset=".23" stop-color="#157BBC"/><stop offset=".436" stop-color="#1F429B"/><stop offset=".667" stop-color="#232962"/><stop offset="1" stop-color="#1D1E53"/></linearGradient><linearGradient id="b" x1="282.028" x2="282.028" y1="805.516" y2="249.938" gradientUnits="userSpaceOnUse" gradientTransform="scale(.33054)"><stop offset="0" stop-color="#0BBBE5"/><stop offset=".033" stop-color="#1AB3E1"/><stop offset=".085" stop-color="#24A8DE"/><stop offset=".121" stop-color="#26A4DE"/><stop offset=".216" stop-color="#2A87C9"/><stop offset=".304" stop-color="#2C72B9"/><stop offset=".35" stop-color="#2C6AB4"/><stop offset=".481" stop-color="#27539F"/><stop offset=".587" stop-color="#254393"/><stop offset=".647" stop-color="#253D8F"/><stop offset=".715" stop-color="#254091"/><stop offset=".803" stop-color="#264998"/><stop offset=".901" stop-color="#2958A3"/><stop offset="1" stop-color="#2C6AB4"/></linearGradient><linearGradient id="c" x1="414.022" x2="414.022" y1="293.798" y2="966.016" gradientUnits="userSpaceOnUse" gradientTransform="scale(.33054)"><stop offset="0" stop-color="#1B1E32"/><stop offset="1" stop-color="#0C102E" stop-opacity="0"/></linearGradient><linearGradient id="d" x1="126.876" x2="43.981" y1="17.049" y2="17.049" gradientUnits="userSpaceOnUse" gradientTransform="scale(.33054)"><stop offset="0" stop-color="#0C0F19"/><stop offset="1" stop-color="#0D122C" stop-opacity="0"/></linearGradient><linearGradient id="e" x1="448.224" x2="373.512" y1="918.918" y2="918.918" gradientUnits="userSpaceOnUse" gradientTransform="scale(.33054)"><stop offset="0" stop-color="#0C0F19"/><stop offset="1" stop-color="#0D122C" stop-opacity="0"/></linearGradient><linearGradient id="f" x1="183.109" x2="691.473" y1="725.934" y2="217.569" gradientUnits="userSpaceOnUse" gradientTransform="scale(.33054)"><stop offset="0" stop-color="#A35525"/><stop offset=".22" stop-color="#AF6628"/><stop offset=".436" stop-color="#BF892C"/><stop offset=".558" stop-color="#C6962C"/><stop offset=".771" stop-color="#DDBE2D"/><stop offset="1" stop-color="#E5D03B"/></linearGradient><linearGradient id="g" x1="127.382" x2="433.428" y1="461.59" y2="461.59" gradientUnits="userSpaceOnUse" gradientTransform="scale(.33054)"><stop offset="0" stop-color="#9A6B29"/><stop offset="1" stop-color="#9A6B29" stop-opacity="0"/></linearGradient><linearGradient id="h" x1="448.595" x2="448.595" y1="1263.41" y2="657.357" gradientUnits="userSpaceOnUse" gradientTransform="scale(.33054)"><stop offset="0" stop-color="#A84322"/><stop offset=".735" stop-color="#8F3D1E" stop-opacity=".265"/><stop offset="1" stop-color="#853A1C" stop-opacity="0"/></linearGradient><linearGradient id="i" x1="161.322" x2="161.322" y1="126.44" y2="284.869" gradientUnits="userSpaceOnUse" gradientTransform="scale(.33054)"><stop offset="0" stop-color="#B75E27"/><stop offset=".631" stop-color="#B75E27" stop-opacity="0"/></linearGradient><linearGradient id="j" x1="339.215" x2="444.21" y1="750.039" y2="624.046" gradientUnits="userSpaceOnUse" gradientTransform="scale(.33054)"><stop offset="0" stop-color="#85331B"/><stop offset=".396" stop-color="#85331B" stop-opacity="0"/></linearGradient><linearGradient id="k" x1="240.749" x2="78.407" y1="402.378" y2="383.279" gradientUnits="userSpaceOnUse" gradientTransform="scale(.33054)"><stop offset="0" stop-color="#E7E074" stop-opacity="0"/><stop offset=".642" stop-color="#E7E074" stop-opacity=".895"/><stop offset=".717" stop-color="#E7E074"/><stop offset="1" stop-color="#E7E074"/></linearGradient><linearGradient id="l" x1="77.59" x2="207.605" y1="387.67" y2="387.67" gradientUnits="userSpaceOnUse" gradientTransform="scale(.33054)"><stop offset=".001" stop-color="#FDF7B8"/><stop offset=".223" stop-color="#F2E097"/><stop offset=".519" stop-color="#E6CC6E"/><stop offset=".791" stop-color="#E1C15D"/><stop offset="1" stop-color="#D2A746"/></linearGradient><linearGradient id="m" x1="366.504" x2="366.504" y1="127.046" y2="10.577" gradientUnits="userSpaceOnUse" gradientTransform="scale(.33054)"><stop offset="0" stop-color="#E7E074" stop-opacity="0"/><stop offset=".742" stop-color="#E7E074" stop-opacity=".914"/><stop offset=".812" stop-color="#E7E074"/><stop offset="1" stop-color="#E7E074"/></linearGradient><linearGradient id="n" x1="220.062" x2="399.773" y1="135.242" y2="135.242" gradientUnits="userSpaceOnUse" gradientTransform="scale(.33054)"><stop offset="0" stop-color="#ECD383"/><stop offset="1" stop-color="#F6F5BC"/></linearGradient><linearGradient id="o" x1="546.038" x2="546.038" y1="230.743" y2="381.622" gradientUnits="userSpaceOnUse" gradientTransform="scale(.33054)"><stop offset="0" stop-color="#F6F5BC"/><stop offset=".218" stop-color="#EDDE7F"/><stop offset=".333" stop-color="#DDB95A"/><stop offset=".48" stop-color="#CE9234"/><stop offset=".553" stop-color="#C9852A"/><stop offset=".904" stop-color="#BA6428"/></linearGradient><linearGradient id="p" x1="410.875" x2="700.696" y1="727.971" y2="638.236" gradientUnits="userSpaceOnUse" gradientTransform="scale(.33054)"><stop offset=".184" stop-color="#E7E074" stop-opacity="0"/><stop offset=".772" stop-color="#E7E074" stop-opacity=".853"/><stop offset=".873" stop-color="#E7E074"/><stop offset="1" stop-color="#E7E074"/></linearGradient><linearGradient id="q" x1="630.265" x2="630.265" y1="768.226" y2="446.509" gradientUnits="userSpaceOnUse" gradientTransform="scale(.33054)"><stop offset="0" stop-color="#F3E39B"/><stop offset=".171" stop-color="#EFDB87"/><stop offset=".368" stop-color="#EAD16B"/><stop offset="1" stop-color="#EBD168"/></linearGradient><linearGradient id="r" x1="564.611" x2="221.118" y1="344.431" y2="687.925" gradientUnits="userSpaceOnUse" gradientTransform="scale(.33054)"><stop offset="0" stop-color="#E4AA31"/><stop offset=".503" stop-color="#87481F"/><stop offset="1" stop-color="#823B1D"/></linearGradient><linearGradient id="s" x1="276.427" x2="88.428" y1="-11.096" y2="329.571" gradientUnits="userSpaceOnUse" gradientTransform="scale(.33054)"><stop offset=".1" stop-color="#E4AA31"/><stop offset=".147" stop-color="#D49A2F"/><stop offset=".233" stop-color="#B6782A"/><stop offset=".347" stop-color="#8A4B20"/><stop offset=".355" stop-color="#87481F"/><stop offset=".431" stop-color="#85421E"/><stop offset=".575" stop-color="#823B1D"/><stop offset=".688" stop-color="#85431E"/><stop offset=".818" stop-color="#87481F"/><stop offset=".85" stop-color="#8F5021"/><stop offset=".904" stop-color="#A56826"/><stop offset=".974" stop-color="#CE922E"/><stop offset="1" stop-color="#E4AA31"/></linearGradient><linearGradient id="t" x1="561.374" x2="561.374" y1="282.41" y2="454.645" gradientUnits="userSpaceOnUse" gradientTransform="scale(.33054)"><stop offset=".001" stop-color="#B87029" stop-opacity="0"/><stop offset=".126" stop-color="#B87029"/><stop offset=".145" stop-color="#AE6727"/><stop offset=".188" stop-color="#9E5924"/><stop offset=".239" stop-color="#934F21"/><stop offset=".305" stop-color="#8C4920"/><stop offset=".444" stop-color="#8A481F"/><stop offset=".58" stop-color="#9A5523"/><stop offset=".861" stop-color="#B87029"/><stop offset="1" stop-color="#B87029" stop-opacity="0"/></linearGradient><linearGradient id="u" x1="68.669" x2="189.298" y1="418.534" y2="418.534" gradientUnits="userSpaceOnUse" gradientTransform="scale(.33054)"><stop offset=".375" stop-color="#BB7B2A"/><stop offset=".951" stop-color="#BB7B2A" stop-opacity=".079"/><stop offset="1" stop-color="#BB7B2A" stop-opacity="0"/></linearGradient><linearGradient id="v" x1="842.557" x2="585.479" y1="983.092" y2="815.748" gradientUnits="userSpaceOnUse" gradientTransform="scale(.33054)"><stop offset="0" stop-color="#B87029"/><stop offset="1" stop-color="#B87029" stop-opacity="0"/></linearGradient><linearGradient id="w" x1="435.492" x2="604.786" y1="442.635" y2="442.635" gradientUnits="userSpaceOnUse" gradientTransform="scale(.33054)"><stop offset="0" stop-color="#B87029"/><stop offset="1" stop-color="#B87029" stop-opacity="0"/></linearGradient><linearGradient id="x" x1="68.669" x2="189.298" y1="418.534" y2="418.534" gradientUnits="userSpaceOnUse" gradientTransform="scale(.33054)"><stop offset="0" stop-color="#B87029"/><stop offset="1" stop-color="#B87029" stop-opacity="0"/></linearGradient><linearGradient id="y" x1="842.557" x2="585.479" y1="983.092" y2="815.748" gradientUnits="userSpaceOnUse" gradientTransform="scale(.33054)"><stop offset="0" stop-color="#B87029"/><stop offset="1" stop-color="#B87029" stop-opacity="0"/></linearGradient><linearGradient id="z" x1="110.754" x2="110.754" y1="1110.21" y2="1026.22" gradientUnits="userSpaceOnUse" gradientTransform="scale(.33054)"><stop offset="0" stop-color="#2B90CF"/><stop offset=".499" stop-color="#2E72B9"/><stop offset="1" stop-color="#284E97"/></linearGradient><linearGradient id="A" x1="308.753" x2="308.753" y1="1110.21" y2="1026.22" gradientUnits="userSpaceOnUse" gradientTransform="scale(.33054)"><stop offset="0" stop-color="#2B90CF"/><stop offset=".499" stop-color="#2E72B9"/><stop offset="1" stop-color="#284E97"/></linearGradient><linearGradient id="B" x1="509.73" x2="509.73" y1="1110.21" y2="1026.22" gradientUnits="userSpaceOnUse" gradientTransform="scale(.33054)"><stop offset="0" stop-color="#2B90CF"/><stop offset=".499" stop-color="#2E72B9"/><stop offset="1" stop-color="#284E97"/></linearGradient><linearGradient id="C" x1="697.686" x2="697.686" y1="1110.21" y2="1026.22" gradientUnits="userSpaceOnUse" gradientTransform="scale(.33054)"><stop offset="0" stop-color="#2B90CF"/><stop offset=".499" stop-color="#2E72B9"/><stop offset="1" stop-color="#284E97"/></linearGradient></defs></svg>